<?xml version="1.0" encoding="utf-8"?>
<!-- Generator: Adobe Illustrator 22.0.1, SVG Export Plug-In . SVG Version: 6.00 Build 0)  -->
<svg version="1.1" id="Warstwa_1" xmlns="http://www.w3.org/2000/svg" xmlns:xlink="http://www.w3.org/1999/xlink" x="0px" y="0px"
	 viewBox="0 0 708.7 708.7" style="enable-background:new 0 0 708.7 708.7;" xml:space="preserve">
<style type="text/css">
	.st0{fill:#E6E7E8;}
	.st1{fill:none;stroke:#41AD49;stroke-width:14;}
	.st2{fill:#532D00;}
	.st3{fill:#FFFFFF;}
	.st4{fill:#98613B;}
</style>
<g>
	<path class="st0" d="M350.8,31.4L96.8,219c0,0,22.1,85.5,22.1,119.5s-24,66.1-25.9,144.6c-1.9,78.4,52.8,204.6,265,195.6
		c212.2-9,255.9-130.4,255.9-194.6s-34.1-101.1-34.1-145.5c0-44.4,25.4-120.9,25.4-120.9L350.8,31.4L350.8,31.4z"/>
	<path class="st1" d="M350.8,31.4L96.8,219c0,0,22.1,85.5,22.1,119.5s-24,66.1-25.9,144.6c-1.9,78.4,52.8,204.6,265,195.6
		c212.2-9,255.9-130.4,255.9-194.6s-34.1-101.1-34.1-145.5c0-44.4,25.4-120.9,25.4-120.9L350.8,31.4L350.8,31.4z"/>
	<path d="M555.5,582.6c-11.3-11.2-20.3-20.2-26.9-27c-12.5-13-20.4-21.3-23.7-25l-23.6,14.5c4.1,9.8,8.1,20.3,12,31.6
		c5.6,17,9.6,29.3,11.9,36.8l11.4-7l-2.5-8.9c1.9,1.2,3.3,2.1,4.4,2.8l5.2,3.4c0.9-2.8,1.8-5.2,2.7-7.1c1.6-2.8,2.6-4.6,3-5.2
		l4.7,4.3L555.5,582.6L555.5,582.6z M522.8,584.9c-1.6,1.8-3.2,3.3-4.7,4.6c-2.6,2-4.3,3.3-5,3.8c-1.1-4-2-7.2-2.5-9.7
		c-0.8-4.2-1.4-7.3-1.8-9.2c3.3,2.2,5.8,3.9,7.5,5.2C519.3,582.1,521.5,583.8,522.8,584.9L522.8,584.9z M487.3,606.6
		c-5.3,2.8-9.4,4.7-12.1,5.8l-19-55.6l-29.8,11.7c6.4,13.5,11.4,24.2,14.8,31.9c6.6,15.2,11.3,26.1,14.1,32.8l38.8-15.2
		c-0.7-2.6-1.2-4.9-1.5-6.9c-0.5-3.5-0.8-5.8-1-7.1C489.9,605.2,488.4,606.1,487.3,606.6L487.3,606.6z M433.3,625.4
		c-5.7,1.8-10,3-13,3.6l-9-58.1l-31.3,6.3c4,14.4,7,25.8,9.1,34c3.9,16.1,6.6,27.7,8.2,34.7l40.9-8.2c-0.2-2.7-0.3-5-0.3-7.1
		c0.1-3.5,0.2-5.9,0.3-7.2C436.1,624.4,434.5,625.1,433.3,625.4L433.3,625.4z M351.9,648.8l25.8-1.4c-0.3-14-0.5-25-0.6-33.1
		l-0.2-37.7l-31.9,1.7L351.9,648.8L351.9,648.8z M359,512.1l0.8-12.1h-20.1c0.4,6.1,0.6,10.9,0.7,14.4l0.6,15h17.1
		c0.3-1.2,0.5-2.2,0.6-2.9c0.4-1.5,0.6-2.4,0.7-2.8c-1.1,0.3-1.9,0.4-2.4,0.5c-2.6,0.2-4.3,0.2-5.3,0.2l0.2-4.3c1.3,0,2.4,0,3.1,0
		c1.5,0.1,2.4,0.3,2.8,0.3c0.1-1,0.3-1.9,0.5-2.7c0.3-1.3,0.5-2.2,0.7-2.6c-3.2,0.1-5.5,0.1-6.9,0.1l0.3-3.6c1.3,0,2.4,0.1,3.5,0.2
		C357.5,511.9,358.6,512,359,512.1L359,512.1z M338.1,512l0.6-12h-23.7l0.5,12l2.7-0.3l3-0.1c0.1,1.8,0.3,3.7,0.4,5.6
		c0.3,5.5,0.5,9.5,0.6,12.1h9.2c0.3-5.4,0.5-9.5,0.7-12.3c0.2-2.9,0.3-4.7,0.4-5.4c1.5,0,2.6,0.1,3.3,0.1
		C336.8,511.9,337.6,511.9,338.1,512L338.1,512z M333.6,474.2c1.1-1.7,1.6-3.6,1.6-5.9c0-6.9-5.2-10.4-15.5-10.4
		c-3.7,0-6.8,0.2-9.2,0.7c0.4,6.3,0.7,11.2,0.9,14.8c0.3,6.7,0.5,11.5,0.6,14.5c3.3,0.5,6.3,0.7,9.2,0.7c3.3,0,6-0.4,8-1.3
		c2.6-1.1,3.9-3,3.9-5.4c0-1-0.3-1.9-0.8-2.8c-0.6-0.9-1.3-1.5-2.2-1.9C331.5,476.6,332.6,475.6,333.6,474.2L333.6,474.2z
		 M323,478.7c0.2,0,0.5,0,0.7,0c2.1,0,3.2,0.7,3.2,2.2c0,1.8-1.3,2.6-4,2.5L323,478.7L323,478.7z M327.4,471.8c0,2-1.4,2.9-4.3,2.8
		l0.3-5.7c1.2,0,2.1,0.2,2.8,0.7C327,470.1,327.4,470.9,327.4,471.8L327.4,471.8z M308.5,470.9l0.4-12.3h-9.4
		c0.3,5.1,0.6,9.1,0.7,11.9c0.2,5.7,0.2,9.9,0.2,12.5c-0.5,0.3-1,0.4-1.5,0.4c-1.6,0-2.6-0.5-3.1-1.6c-0.5-1-0.8-3-0.8-6
		c-0.1-3.9-0.1-6.9,0-9c0.1-3.8,0.2-6.5,0.2-8.2H283c0.1,3.5,0.3,7.3,0.7,11.6c0.4,4.6,0.8,7.7,1.3,9.4c0.8,3,2.1,5.2,3.9,6.6
		c2.2,1.7,5.3,2.5,9.5,2.5c3.4,0,6.7-0.6,10-1.8C308.4,479.8,308.4,474.5,308.5,470.9L308.5,470.9z M281.5,485
		c0.3-1.4,0.6-2.4,0.7-2.9c-0.9,0.2-1.6,0.3-2.1,0.4c-2.5,0.3-4.3,0.4-5.6,0.4l1.1-24.3h-13.2c0.4,6.2,0.7,11,0.9,14.5
		c0.3,6.9,0.4,11.8,0.5,14.8h17.3C281.2,486.8,281.4,485.8,281.5,485L281.5,485z M257.4,468.3c2.2-4.2,3.6-6.9,4.3-8.2
		c-1.7-0.3-3.5-0.7-5.2-1.1l-5.4-1.2c-0.8,2.6-1.4,4.7-1.9,6.2c-1.2,3.4-2,5.9-2.6,7.4h-0.1l0.7-12.9h-13.3c0.5,6,0.8,10.7,0.9,14.1
		l0.5,15.2h10.6l0.2-6.6h0.1c0.8,1.4,1.6,2.8,2.4,4.1c1.5,2.1,2.5,3.5,3,4.1c2-0.9,3.5-1.6,4.6-2.1c1.9-0.8,3.3-1.4,4.2-1.8
		c-2-1.8-3.6-3.3-4.7-4.5c-1.9-2.1-2.9-3.2-3.1-3.5C254.6,473.7,256.2,470.6,257.4,468.3L257.4,468.3z M234.5,500.5l-5.4-1.2
		c-0.8,2.6-1.4,4.7-1.9,6.2c-1.2,3.4-2,5.9-2.6,7.4h-0.1l0.7-12.9H212c0.5,6,0.8,10.7,0.9,14.1l0.5,15.2H224l0.2-6.6h0.1
		c0.8,1.4,1.6,2.8,2.4,4.1c1.5,2.2,2.5,3.5,3,4.1c2-0.9,3.5-1.6,4.6-2.1c1.9-0.8,3.3-1.4,4.2-1.8c-2-1.8-3.6-3.3-4.7-4.5
		c-1.9-2.1-2.9-3.3-3.1-3.5c2.1-3.8,3.7-6.9,4.9-9.2c2.2-4.2,3.6-6.9,4.3-8.2C238,501.2,236.3,500.8,234.5,500.5L234.5,500.5z
		 M222.4,550.4c-4-3.2-7.8-5.9-11.6-8.2c-10-6-19.6-8.2-29-6.5c-10,1.8-18,7.8-24.2,18c-6.4,10.7-7.6,20.9-3.4,30.8
		c3.6,8.3,10.4,15.5,20.4,21.6c6.8,4.1,12.2,6.7,16.4,7.8c3.3-4.9,6.2-9.2,8.7-12.7c4.3-5.9,7.2-9.9,8.8-11.9l-16.7-10.1
		c-1.7,4.1-3,7-3.8,8.7l-4.2,8.3c-3.5-2-6-4.7-7.5-8.2c-1.8-4.1-1.4-8.2,1-12.3c2.6-4.3,6.6-6.8,12-7.4c4.8-0.5,9.2,0.5,13.3,2.9
		c3.2,1.9,5.5,3.8,6.8,5.5L222.4,550.4L222.4,550.4z M253.4,529.3h10.4c-1.6-6.4-2.8-11.5-3.6-15.4c-1.6-7.3-2.6-12-2.9-13.9h-11.5
		c-0.7,4.3-1.6,8.9-2.6,13.8c-1.7,7.2-3,12.4-3.8,15.6h5.5l1-3.7c0.4,0.8,0.7,1.5,0.9,1.9l1.1,2.3c0.9-0.8,1.7-1.4,2.5-1.9
		c1.2-0.7,1.9-1,2.2-1.2L253.4,529.3L253.4,529.3z M251.8,523.1c-1,0.3-1.8,0.5-2.7,0.6c-1.3,0.2-2.2,0.2-2.6,0.2
		c0.5-1.7,0.9-3,1.2-4c0.6-1.7,1.1-2.9,1.4-3.6c0.7,1.5,1.2,2.6,1.5,3.5C251.2,521.3,251.6,522.4,251.8,523.1L251.8,523.1z
		 M214.4,585.9c-3.3,10.3-3.5,19.9-0.5,28.6c3.1,9.3,9.2,15.4,18.2,18.3c8.7,2.8,17.1,1.4,25-4.3c7.6-5.4,13.1-13.3,16.4-23.6
		c3.5-11,3.5-20.5-0.2-28.7c-3.5-7.7-9.5-12.9-18-15.6c-8.7-2.8-16.7-2.1-23.9,2.1C223.6,567.1,218,574.9,214.4,585.9L214.4,585.9z
		 M233.6,600.7c2.6-8.2,6.6-11.4,12-9.7c5.5,1.8,6.9,6.7,4.3,14.8c-1,3.2-2.8,6-5.3,8.4c-2.8,2.7-5.3,3.7-7.5,3
		c-2.3-0.7-3.7-3-4.3-6.7C232.3,607.2,232.6,604,233.6,600.7L233.6,600.7z M266,529.3h10.7l0.2-6.7h0c1.1,2.3,2,3.9,2.6,4.9
		c1.3,1.9,2.1,3.1,2.5,3.5c1.3-0.6,2.6-1.3,4-1.9c2-0.9,3.4-1.4,4-1.6c-1.5-1.4-2.6-2.5-3.3-3.3c-1.5-1.8-2.4-3-2.7-3.6
		c1.7-0.7,3.2-1.8,4.4-3.4c1.3-1.8,2-3.9,2-6.2c0-7.7-5.4-11.5-16-11.5c-2.9,0-6.1,0.2-9.6,0.6c0.4,6.6,0.7,11.8,0.8,15.6
		C265.6,522,265.8,526.6,266,529.3L266,529.3z M277.1,518.5l0.1-6.5c1.1-0.1,2.1,0.1,2.8,0.5c1,0.5,1.5,1.4,1.5,2.6
		c0,1.2-0.5,2.1-1.6,2.7C279.1,518.3,278.1,518.5,277.1,518.5L277.1,518.5z M304.2,529.3h10.4c-1.6-6.4-2.8-11.5-3.6-15.4
		c-1.6-7.3-2.6-12-2.9-13.9h-11.5c-0.7,4.3-1.6,8.9-2.6,13.8c-1.7,7.2-3,12.4-3.8,15.6h5.5l1-3.7c0.4,0.8,0.7,1.5,0.9,1.9l1.1,2.3
		c0.9-0.8,1.7-1.4,2.5-1.9c1.2-0.7,1.9-1,2.2-1.2L304.2,529.3L304.2,529.3z M302.6,523.1c-1,0.3-1.8,0.5-2.7,0.6
		c-1.3,0.2-2.2,0.2-2.6,0.2c0.5-1.7,0.9-3,1.2-4c0.6-1.7,1.1-2.9,1.4-3.6c0.7,1.5,1.2,2.6,1.5,3.5
		C302,521.3,302.4,522.4,302.6,523.1L302.6,523.1z M280.1,610.5c-0.9,15.4-1.5,26.4-1.9,33.1l25.8,2.6l2.1-16l0.1,0
		c2.2,5.8,3.9,9.9,5,12.4c2.6,4.9,4.3,7.9,5.1,9.1c3.2-1.2,6.6-2.4,10.1-3.6c5.1-1.6,8.4-2.6,9.9-3c-3.2-3.7-5.6-6.6-7.2-8.8
		c-3-4.7-4.9-7.9-5.7-9.3c4.4-1.2,8.1-3.6,11.3-7.1c3.6-4,5.6-8.9,6.2-14.5c1.8-18.5-10.1-29-35.8-31.5c-6.9-0.7-14.7-1-23.1-1
		C281.4,588.9,280.8,601.4,280.1,610.5L280.1,610.5z M307.6,620.3l1.8-15.7c2.7,0.1,5,0.8,6.7,1.9c2.3,1.5,3.3,3.7,3,6.6
		c-0.3,2.9-1.8,5-4.6,6.2C312.4,620.3,310.1,620.6,307.6,620.3L307.6,620.3z"/>
	<path class="st2" d="M571.1,190.4c-0.6-6.2,3.6-29.5,0.1-33.8c-3.4-4.4-35.9-28.5-37.2-28.5c-0.2,0-3.2,4.6-0.1,5.5
		c2.6,0.7-6.2,3.8-0.8,5.5c4.1,1.3,1.1,4.8-0.9,4.6c-6.3-0.6,2.4,5.3,1.6,6.6c-0.7,1.2-6.7,0.5-0.3,4.2c2.6,1.5-8.5,0-1,5.2
		c1.2,0.8-1.3,1.8-2.3,1.8c-4.8,0.3,1.2,4,2.4,4.9c2.7,2-0.5,1.7-0.8,1.6c-2.4-0.2-0.4,1.6-0.4,2.3c0,1,0,1.8,0,2.2
		c0,5.3-8.1,7.3-12.2,11.9c-4,4.7-2.1,14-2.1,14s-7.5-6.7-12.9-8.7c-5.5-2-20.9-0.8-20.9-0.8s-0.3,28.9,1.4,44.2
		c1.7,16,15.4,49.6,15.4,49.6s6.7-1.9,10.7-0.9c4,0.9,8.4,1.6,11.5,2.8c3.1,1.2,8.4,4.2,10.6,7c2.2,2.8,0.4-5.4,1.6-4.5
		c1.2,0.9,7.8,7.6,12.2,11.4c4.4,3.7-1.6-7.6-0.7-8c0.9-0.3,7.2,9,8.7,14.6c1.6,5.6,5.4-5.3,6.6-8.7c1.2-3.4,3.5-9.7,4.1-7.2
		s2.2,1.9,3.7,0.1c1.6-1.9,12.5-23,15.3-34.5c2.8-11.5-6.2-31.1-8.7-37.9C573.2,210,571.8,196.6,571.1,190.4L571.1,190.4z
		 M465,531.8c0.2-2.7,1.1-7.5,0-10.4c-1.1-3-4.5-5.9-4.5-9c0-3.1-0.9-7.5-5-13.4c-4-5.9-19-27.8-19-27.8L413.8,490l-21.5,16.4
		c0,0,3.2,3.4,2.6,5.3c-0.6,2-5.5,7.6-5.5,7.6s-7.9-1.1-10.7,2.3s-6.6,12.3,0.8,12.8c7.4,0.5,17.3-3.3,19.5-6.5
		c2.2-3.3,7.8-5.8,7.8-5.8s0,8.6,2.5,9c2.5,0.5,16.8-3.4,16.8-3.4s1.9,3.7,3.4,3.9c1.6,0.2,13.1,0.8,15.6,0.8
		C447.6,532.4,464.9,534.5,465,531.8L465,531.8z M429.5,180.4c-0.5,0,0.5-12,0.5-16.5s-2.5-12-5.1-16c-2.7-4-2.8-4.4-2.8-4.4
		l-4.2-4.7c0,0,3.1-7.6,3.4-15.1c0.3-7.5-1.9-18.7-7-23.5c-5.1-4.7-12.6-7.5-13.1-7.1c-0.5,0.5,2,5.9,1.7,9
		c-0.3,3.1-4.4,13.4-5.8,14.6c-1.4,1.2-1.1,4.7-2.8,6.2c-1.7,1.6-3.9,2.8-5.6,2.6s-1.7-0.2-1.7-0.2s-1.2-3.6-2.7-3.6
		c-1.4,0-2,2.2-3.7,2.5c-1.7,0.3-9,0.3-11.2,2c-2.2,1.7-3.7,4-3.7,4s-4.7,0.4-7.2,2.8c-2.5,2.4-5.3,6-5.3,6s-5.5,56.8-6.6,68.6
		c-1.6,17,6.1,54.9,6.1,54.9s20.9-25.2,29.6-36c11.9-14.7,49-45.6,49-45.6S430,180.4,429.5,180.4L429.5,180.4z M263.3,146.7
		c5-8.1,21.5-43.1,21.5-43.1s-9.6-7.3-19.6-11c-10-3.7-32.4-8.8-45.5-13.5c-13.1-4.7-21.6-13.8-21.6-13.8s-1.6-1.4-7.8-6.4
		c-1.8-1.4-6.4-4.4-12.2-7.7c0,0.5-0.2,2.4,0.3,3.7c0.8,2,1.8,3,4.2,3.5c1.2,0.3,3,0.4,3.5,1.9c0.5,1.5-0.6,3.2-1.2,4.2
		c-0.6,1-1.4,2.6-1.4,2.6s0.8,0.2,1.7,0.5c1,0.4,2,1.5,1.2,3.5c-0.7,2-1.9,2.1-2.4,2.1c-0.4-0.1-1-0.3-1.1-0.1
		c-0.1,0.2,1.3,3.3,1.9,4.3c0.6,1,1.6,2.6,1.4,3.3c-0.2,0.8-2.3,3-2.9,4c-0.6,1-0.1,1.3,0.1,1.6c0.2,0.3,2.3,0.6,2.3,1.2
		c0,0.6-0.2,0.2-1.7,1.2c-1.5,1-2.7,2.3-3.5,4c-0.8,1.8,0.8,4.2,0.9,5.8c0.2,1.6-1,2.6-1.9,2.9c-0.6,0.3-2.4,0.5-3.4,0.5
		c4.4,3.4,8.7,6.7,10.9,8.2c5,3.4,15.7,21.9,23.8,38.7c8.1,16.8,27.9,30.8,27.9,30.8S258.3,154.8,263.3,146.7L263.3,146.7z
		 M179.6,384.5c0,0-4-3.3-6.9-3.3c-2.9,0-7.5,2.4-11.1,4.7c-3.5,2.3-11.5,5.9-11.8,10.2c-0.3,4.3,0.6,13.9,1,16.8
		c0.5,2.9,4.9,8.5,7.9,8.6c2.9,0.2,4.3-0.8,4.3-0.8s2.7,2.9,5.6,2.9c2.9,0,6.4-0.1,6.4-0.1s0.4,3,5.2,3.4c3.8,0.3,9.5-2.9,9.5-2.9
		s2.1,2.4,5,4.2c1.7,1,6.8,4.1,8.9,1.9c2.1-2.1,2.2-6.6,0.9-8.5s-6.7-7-4.8-9.6c3.7-4.8,7.7,3.1,11.1,4.7c3.4,1.7,7,2.7,8.9,1.8
		c1.8-0.9,4.3-2.4,4.9,1.5c0.6,3.9-3.2,10.7-7.1,12.6c-2.6,1.2-5.9,5.1-4.2,8.2c1.7,3.1,5.3,5,11.6,1.5c6.4-3.5,11.8-8.9,13.2-14.9
		c1.4-6,1.1-13.7-0.5-17.7c-1.5-4-3.2-5.8-3.5-7.7c-0.3-1.8-0.2-5.2-0.2-5.2s-18.9-34.4-21.5-37.6c-2.6-3.2-19.2-20.7-19.2-20.7
		s-2.9,18.9-4.1,25.6c-1.2,6.7-3.8,15.8-3.8,15.8s-2.2,1-3.4,2.1C181,383.2,179.6,384.5,179.6,384.5L179.6,384.5z"/>
	<path class="st3" d="M511.8,282.1c0,0-2.6-1.8-11.5,0.6c-0.3,0.1-2.8-5.8-3.6-8c-3.1-8.4-10.2-29.8-12.1-45.2
		c-1.9-15.5-0.7-40.2-1.9-42.4c-1.2-2.2-26.4-3.6-30.1-3.3c-3.7,0.3-21.3-3-21.3-3s-33.9,27-50.9,47.5
		c-9.6,11.5-27.3,33.2-27.3,33.2s-6.8-30.2-6.8-45.1s6.2-67.6,7.1-72.8c0.9-5.3-2.8-9.3-8.7-12.1c-5.9-2.8-13.3-2.2-13.3-2.2
		s-8.7-6.2-13.6-7.7c-5-1.5-18-4-18-4s-9.9-13.9-14.5-16.1c0,0-18.4,40.1-25.2,49.7c-4.1,5.8-21.7,28.3-21.7,28.3l-9.4-7.7
		c0,0-5.4,11.7-3.2,18.3c1.1,3.4,4.6,4.3,11.4,5.9c6.8,1.5,21.8,6.5,24.9,11.1c3.1,4.6,10.6,8.8,14.3,8.2s4.3,3.2,4.3,3.2
		s1.7,21.9,4.5,31.9c2.8,9.9,10.2,23.3,10.2,23.3l-0.1,22.3c0,0-4.6,5.2-6.2,4.9c-1.6-0.3-12.4-10.8-14.3-16.1
		c-1.9-5.3-4.5-2.2-4.5,2.2c0,0.3,0.1,1.9,0.1,2.3c-2.2-1.5-7.2-5-8.8-5c-2.2,0-22.8,15.5-32.5,22.3c-9.6,6.8-32.9,25.9-38.4,27.8
		c-3.2,1.1,16.7,18,22.9,28.3c6.2,10.2,21.4,38.4,22.6,37.5c1.2-0.9,4.3-9.9,7.4-15.2c3.1-5.3,6.8-10.8,8.1-8.4
		c1.2,2.5,11.2,17.4,24.5,23.6c13.3,6.2,28.8,5.2,28.8,5.2s23,23.6,33.5,30.7c10.5,7.1,29.8,27.6,31.6,31c1.9,3.4,3.7,18,6.8,24.8
		c3.1,6.8,6,18.6,8.8,17.7c2.8-0.9,48.5-35.3,50.9-39.8c1.1-1.1-7.4-31-13.3-39.6c-5.9-8.7-6.2-8.2-6.2-8.2s-25.5-20.7-26.2-22.7
		c-0.6-2-3.4-23.5-5.3-29.4c-0.3-0.8-0.7-1.8-1.3-3c1.4-0.5,2.2-0.8,2.2-0.8s-11.2-13.9-14.3-19.2c-3.1-5.3-8-9-8-9
		s12.3-13.6,16-15.5c3.7-1.9,20.8-3.4,31-11.8c10.2-8.4,22.3-24.2,22.3-24.2s12.1,6.2,23.6,6.2c11.5,0,20.8-6.8,26.1-6.5
		c5.3,0.3,11.8,3.3,17.3,8.2c2.8,2.5,7.7,6.8,11.1,6.2C515.4,300.1,511.8,282.1,511.8,282.1L511.8,282.1z M406,134.1l0.6-2.2
		l-0.7-2.8l-3.4-3.4l-2.8-2.9l-1.4-1.6c0,0-1.6,5.7-2.1,6.5c-0.5,0.8-3.7,3-3.7,3l1,0.8l3.4,2.3c0,0,2.4,1.8,3.2,2.1
		c0.8,0.4,3.4,0.3,3.4,0.3L406,134.1L406,134.1z"/>
	<path class="st4" d="M534,133.6c-2.7-0.8-0.8-4.3-0.1-5.2c-3-3-9-8.4-12.2-8.4c-4.4,0-21.1,4.3-25.3,9c-3.8,4.3-2.6,8.8-0.9,11
		c1.7,2.2,4.1,3.1,4.1,3.1s-3.6,2.1-3.8,6.2c-0.2,3.5,4.2,5.2,4.2,5.2s-1.4,2.4-0.1,5.7c1.2,3.3,8,6.2,8,6.2s-1.6,2.4,2.8,6.1
		c2.8,2.3,8.4,0.5,13.8-2.9c1.4-0.9,4.4-0.4,6.8,0.3c-0.5-0.8-1.2-1.8,0.6-1.7c0.3,0,3.4,0.4,0.8-1.6c-1.2-0.9-7.2-4.6-2.4-4.9
		c1-0.1,3.5-1,2.3-1.8c-7.5-5.1,3.6-3.7,1-5.2c-6.4-3.6-0.4-2.9,0.3-4.2c0.8-1.3-7.9-7.2-1.6-6.6c2,0.2,5-3.3,0.9-4.6
		C527.8,137.4,536.6,134.3,534,133.6L534,133.6z M396.5,146.7c1.2-4.9,1.8-7.6,0.8-10.2c-1-2.6-3-3.6-4.3-4.2c-1.4-0.6-3.4-1.3-4-2
		c-0.6-0.6-1.6-2.7-1.9-3.7c-0.3-0.9-0.9-3.9-2.1-4.4c-0.5-0.2-1.4,0-2.2,0.7c-0.8,0.7-1.5,1.8-3,1.8c-1.5,0.1-7.4,0.2-9.4,1.5
		c-2.1,1.2-4.4,3.9-4.4,3.9l-1.9,0.9c0,0-3.6,5.9-4.8,8.9c-1.1,3-2.4,6.7-1.4,10.3s4.4,9,8.7,10.9c4.3,1.9,6.7,1.7,9.6,1.5
		c2.9-0.3,8.6-2.1,11.2-4.2C389.8,156.5,395.3,151.6,396.5,146.7L396.5,146.7z M185,64.6c1-1.8,1.6-3,1.5-4.2
		c-0.1-1.1-2.1-1.4-4.3-2.1c-2.2-0.7-3.4-2.6-3.8-3.7c-0.3-0.9-0.2-2.6-0.2-3.3c-14.5-8.4-36.3-20.1-39.3-22.3
		c-4.7-3.4-11.2-7.1-14.9-4.1c-5,3.9,5.6,15.2,5.6,15.2s-0.3,0-0.7-0.2c-1.3-0.6-4.4-1.6-6.6,2.2c-3.4,6,9.3,15.4,9.3,15.4
		s0.1-0.2-0.7-0.2c-1.3,0-3.9,0.3-4.2,2.1c-0.5,3.3,9.5,11.4,15.8,15.8c6.2,4.4,15.9,10.6,15.9,10.6s2.7,2.8,5.4,5.9
		c1.1,1.3,6.2,5.5,11.7,9.7c0.9,0,3.6-0.2,4.6-0.5c1.2-0.3,1.6-1.6,1.4-2.9c-0.1-1-1-2.5-1-4.1s0.4-2.1,1.5-3.7
		c1.2-1.6,3.9-2.9,3.9-2.9s-1.4-0.2-2.2-0.8c-0.8-0.6-0.5-1.5,0.2-2.5c0.7-1,2.4-3.2,2.5-3.7c0.1-0.5-1.8-3.7-2.5-4.9
		c-0.7-1.2-1-1.7-0.6-2.3c0.3-0.7,1.4,0,1.5,0c0.1,0,1.2-0.5,1.9-2.6c0.7-2.1-1.1-2.6-2.3-3C183.3,67,183.9,66.4,185,64.6L185,64.6z
		"/>
	<path d="M571.3,190.7c-0.6-6.3,3.5-30,0.1-34.4c-3.5-4.4-36.6-28.5-37.8-29c0,0-8.3-8.1-11.8-8c-4.4,0.2-21.4,4.5-25.7,9.2
		c-3.9,4.3-2.8,9.1-1,11.3c1.8,2.2,3.8,3.1,3.8,3.1s-3.1,1.9-3.4,6c-0.2,3.5,4.1,5.4,4.1,5.4s-1.3,2.4,0,5.7
		c1.3,3.3,7.8,6.3,7.8,6.3s-1.4,2.5,3.1,6.2c2.9,2.4,8.5,0.8,14-2.7c1.4-0.9,4.4-0.4,6.7,0.2c0.2,0.3-0.1,2.2-0.1,2.7
		c0,4.6-7.9,6.8-12,11.5c-4.1,4.7-2.6,13.3-2.6,13.3s-7.5-6.4-13-8.4c-4.7-1.8-16.4-0.8-19.5-0.5c-0.1-0.9-0.2-1.5-0.4-1.8
		c-1.2-2.2-26.8-3.7-30.5-3.4c-1.8,0.1-6.5-0.4-11.1-1l0,0l-11-1.9c0,0,0,0-0.1,0.1c-0.3,0-1.1-0.2-1.1-0.3
		c-0.1-0.2,0.4-9.2,0.5-14.1c0.1-4.8-0.5-6.5-1.6-10.7c-1.2-4.2-4.2-9-6.1-11.6c-1.9-2.6-4.3-5-4.3-5s0.5-1.5,1-2.8
		c0.4-1.3,0.9-3.5,1.4-5.4c0.5-1.9,0.8-4.3,0.9-7c0.2-2.7-0.2-5.6-0.6-8.7s-1.3-5.3-1.9-7.4c-0.6-2-2.6-5.4-3.7-6.7
		s-3.9-3.2-5.8-4.4c-1.9-1.2-5.4-2.8-6.7-3.3c-1.3-0.5-2-0.5-2.2,0c-0.2,0.5,0.8,3.5,1.4,6.1c0.6,2.6,0.3,3.4-0.2,5.3
		c-0.5,1.9-3.2,8.6-3.9,10.1c-0.6,1.5-1.7,2.3-2.1,3.1c-0.4,0.9-0.9,3.3-1.7,4.7c-0.9,1.4-3.1,2.3-4.3,2.7c-1.2,0.4-2.7,0.1-2.7,0.1
		s-0.2-0.7-1.2-2.5c-1-1.8-2.4-1.4-3.7,0.1c-1.3,1.5-2.7,1.4-5.4,1.5c-2.8,0.1-6.3,1-7.4,1.5c-1.1,0.6-4.1,4.3-4.1,4.3
		s-4,0.7-6.3,2.1c-2,1.1-4.8,4.9-5.7,6.2c-0.8-1.8-3.1-5.1-7.4-6.8c-0.3-0.1-0.5-0.3-0.8-0.4c-5.9-2.8-13.4-2.2-13.4-2.2
		s-8.7-6.2-13.7-7.8c-5.6-1.8-17.4-3.7-17.8-3.8l0,0c0,0,0,0,0,0c0,0,0,0,0,0s-10.5-14.6-15.2-16.8c0,0-0.3,0.6-0.8,1.8
		c-3.5-2.5-11.4-7.8-19-10.6c-10.1-3.8-32.1-8.8-45.3-13.5c-13.2-4.7-22.7-14.8-22.7-14.8s0,0-6.3-5c-6.3-5-48.9-27.6-53.1-30.7
		c-4.7-3.5-10.9-6-14.3-3.3c-5,3.9,4.7,14.6,4.7,14.6s-3.5-2.4-6.5,2.8c-3,5.2,8.5,15,8.5,15s-3.6-0.2-4.1,2.7
		c-0.5,2.8,8.8,11,15.1,15.4c6.3,4.4,16.1,10.7,16.1,10.7s2.8,2.4,5.5,5.5c2.1,2.5,18.7,15.4,23.7,18.9c5,3.5,15.7,22,23.9,39
		c4,8.4,11.4,16.5,17.9,22.5c-0.2,0.6-1.7,4.4-3,9.3c-1.5,5.3-0.7,9.9,0.9,11.4c0,0,0.1,0.1,0.1,0.1c1,1.2,5.8,3,10.7,4.1
		c6.9,1.6,21.5,6.2,24.6,10.9s11.2,9,14.9,8.4c3.7-0.6,3.7,3.1,3.7,3.1s1.9,21.8,4.7,31.7c2.6,9.2,9.1,21.2,10.1,23.1
		c0,0,0.2,0.5,0.2,0.9v21.1c0,0-0.1-0.1-0.1-0.1c-1.2-0.5-2.8,1.2-2.8,1.2c-1.4,1.6-2.7,2.6-3.4,3.4c-3-2.1-12.2-11.6-13.9-16.4
		c-1.9-5.3-4.7-0.9-4.7,3.4c0,0.3,0,0.6,0,1c-2.2-1.5-6.8-4.4-8.4-4.4c-2.2,0-23.7,15.9-33.3,22.7c-9.7,6.8-33,25.7-38.5,27.6
		c-1,0.3,0.3,2.2,2.6,4.9c-0.6,4.3-2.5,18.1-3.6,23.9c-1.3,6.9-4.1,16.7-4.1,16.7s-1.9,0.8-3,1.7c-1.1,0.9-2.4,2.4-2.4,2.4
		s-3.8-3.2-6.8-3.2c-3,0-7.6,2.2-11.2,4.6c-3.6,2.4-12.1,6.3-12.4,10.7c-0.3,4.4,0.5,13.8,0.9,16.8c0.5,3,5.3,9,8.3,9.1
		c3,0.2,4.4-0.9,4.4-0.9s2.7,3.1,5.7,3.1s6.1,0,6.1,0s1.4,3,5.3,3.3c3.9,0.3,9.4-2.7,9.4-2.7s2.6,2.7,5.5,4.6
		c1.7,1.1,6.6,3.5,8.8,1.3c2.2-2.2,2.5-6.6,1.3-8.5c-1.3-1.9-6.7-7.5-5.1-9.6c3.5-4.7,6.9,2.8,10.4,4.6c3.5,1.7,7.3,3,9.2,2
		c1.9-0.9,4.2-2.5,4.6,1.6c0.3,4.1-4.1,10.5-6.8,11.8c-2.7,1.3-6.1,4.4-4.9,7.9c1.3,3.5,5.1,6.6,11.7,3c6.6-3.6,12.9-8.8,14.3-14.9
		s1.6-14,0-18.1c-1.6-4.1-3.6-6.4-3.9-8.3c-0.1-0.8-0.2-2-0.1-3.1c1,1.5,1.7,2.3,2,2.2c1.2-0.9,4.4-10,7.5-15.2
		c2.1-3.6,4.5-7.3,6.2-8.6l1.8,0.1c0,0,0,0,0.1,0.1c1.2,2.5,11.2,17.5,24.6,23.7c12.5,5.8,27,5.4,28.8,5.3c0,0.1,0.3,0.1,0.3,0.1
		c1.3,1.3,23.3,23.8,33.6,30.7c9.6,6.5,26.2,23.8,30.8,29.7c2.3,4.6,4.2,20.8,7.2,27.5c3.1,6.8,6.5,17.5,9.3,16.6
		c0.5-0.2,2.7-1.6,5.7-3.8c0.7,0.7,2,2.3,2.2,3.4c0.3,1.6-0.2,2-1.4,3.8c-1.3,1.8-3.7,4.7-3.7,4.7s-4.4-0.5-7.3,0.3
		c-2.8,0.9-4,2.2-5.2,4.4c-1.3,2.3-2.6,6.3-1.9,8.2c0.7,1.9,2.2,3.1,5.6,3.1c3.5,0,9.9-1.2,13.4-3c3.4-1.8,4.7-2.8,5.6-4.1
		c0.9-1.4,3-2.9,4.2-3.6c1.2-0.7,2.6-1.4,2.6-1.4s0.4,4.6,0.7,5.8c0.3,1.3,1,3.2,3.2,3c2.2-0.2,15.6-3.4,15.6-3.4s1.8,3,2.7,3.5
		c0.9,0.5,29.8,1.9,32.4,1.8c2.6-0.1,4.4-0.4,4.6-1.6c0.1-1.3,0.7-6.8,0.4-8.7c-0.3-1.9-1-3.4-2.1-4.9c-1.1-1.5-2.5-3-2.8-6.3
		c-0.3-3.3-1.1-6.4-2.6-9.2c-1.5-2.7-8.8-13.4-10.6-15.8c-1.5-2.1-8.8-12.9-10.7-15.7c0.2-0.2,0.3-0.4,0.4-0.6
		c1.1-1.1-7.2-31.3-13.1-40c-5.9-8.7-6.2-9-6.2-9s-25.8-20.4-26.5-22.4c-0.6-2-3.4-23-5.3-28.9c-0.2-0.8-0.7-1.7-1.2-2.8
		c1.5-0.7,2.2-1,2.2-1s-5.9-7.5-8.2-10.7c-2.3-3.3-6.2-9.9-7.9-12.1c-1.5-1.9-5-4.9-5.9-5.6c1.8-0.4,3.9-3.4,5.7-5.2
		c1.9-1.8,7.5-7.3,7.5-7.3s-0.2-0.3-0.8-0.5c1.3-1.2,2.5-2.1,3.3-2.5c3.7-1.9,20.9-3.4,31.1-11.8c8.4-6.8,22.4-24.3,22.4-24.3
		s12.1,6.2,23.7,6.2c9.7,0,19.9-5.8,23.3-6.2c2-0.2,3.1-0.3,3.1-0.3c5.2,0.4,11.4,4.1,16.9,9c3.4,3,6.2,4.5,7.8,5.1
		c0.8,0.4,2.1,0.9,3.1,0.6c1.5-0.5,1.9-4.5,1.6-8.8c-0.3-3.6-1.2-8.2-1.6-9.7c3.3,0.6,6.7,1.2,9.2,2.2c3.1,1.3,8.9,4.5,11.1,7.4
		c2.4,2.2,1.4-4.6,1.4-4.6c1.1,1.1,8,7.7,12.6,11.6c1.5,1.3,2,0.2,1.6-1.5c-0.5-2.5-2.5-6.5-2.2-6.6c0.3-0.1,6.3,8.5,7.9,14.1
		c1.6,5.7,6-3.4,7.2-7.8c1.3-3.5,3.5-9.9,3.8-8c0.6,2.5,2.7,1.9,4.2,0c1.6-1.9,12.4-22.5,15.2-34.1c3.2-12.8-6.1-31.5-8.6-38.4
		C573.4,210.1,572,197,571.3,190.7L571.3,190.7z M501.2,282.8c2.1-0.6,5.9-1.4,8.7-0.8c0.4,0.1,0.9,0.2,1.3,0.3
		c0.4,1.4,1.4,5.8,1.7,9.5c0.3,4.5,0.5,7.7-1,8.2c-0.7,0.2-1.7-0.9-2.3-1.5C507.6,295,504,288.6,501.2,282.8L501.2,282.8z
		 M385,365.7c0,0.2,0,0.3-0.1,0.5c-0.2,0.1-0.4,0.2-0.8,0.4c-2.7,0.7-16.6,4.1-22,4.7c-5.1,0.6-19.2,0.6-22.1,0.6
		c-0.1-7.5-0.8-16.5-2.3-21c-2.3-6.9-6.5-19-7.6-22.3c0.1,0,0.2,0,0.3,0c1.1,0,1.6-0.8,1.8-1.7c1.7,0.9,6.5,3.4,10.4,5.3
		c0.5,1.7,1.3,5.3,1.3,9.4c0,5.9,0.5,8.5,0.5,8.5s0.5-6.4,0.5-10.1c0-2.5-0.1-5.2-0.3-6.8c0.9,0.4,1.7,0.8,2.3,1
		c2.1,0.9,5.9,1.9,9.6,2.7c0.5,1.7,2.3,8,2.3,12.1c0,4.8,1.9,9,1.9,9s-0.3-8.5-1.1-12.3c-0.5-2.4-0.8-6-0.9-8.3
		c2,0.4,3.9,0.7,5.1,0.9l0,0c0,0,5,4,8,9.1c1.4,2.4,4.3,6.5,7,10.2c0.9,1.3,1.6,2.3,2.3,3.1C383,363.1,384.5,365,385,365.7
		L385,365.7z M446.4,532.2l-1.6-13.6c0.9-0.9,6.5-6.6,9.9-6.6c3.7,0.1,6.2,3.4,6.2,3.4l-0.1-0.3c0.3,0.8,0.8,1.5,1.2,2.2
		c1.1,1.6,2.7,3.1,2.8,5.7c0.1,2.6-0.2,5.8-0.3,7.1c-0.1,1.4,0.3,1.8-1.1,2.1c-1.4,0.3-4.8,0.6-8.7,0.4
		C453.5,532.6,450.1,532.4,446.4,532.2L446.4,532.2z M426.3,527.3l0.1-8.7c1.1-1.2,5.1-5.6,9-5.4c4.5,0.2,8.9,5.3,8.9,5.3l1.6,13.7
		c-6.1-0.3-12.9-0.7-13.5-0.7c-1.1-0.1-3-0.1-3.7-0.7C428,530.2,426.4,527.5,426.3,527.3L426.3,527.3z M407.1,521.9
		c0.7-1.2,3-5.1,7.4-5.6c3.8-0.4,11.2,2.7,11.2,2.7l0.6,8.4l0,0c0,0-8.9,2.2-10.4,2.6c-1.5,0.3-6.2,1.6-6.9,0.7
		c-0.7-0.8-1.4-2.8-1.6-4.7C407.2,524.4,407.1,522.6,407.1,521.9L407.1,521.9z M392.9,506.6c12.3-8.8,38.1-28.5,43.7-34.5
		c1.4,2.2,5.6,8.5,7.4,11c2.1,3,12.4,17.2,13.7,20.1c1.3,2.9,2.3,5.9,2.4,8.3c0,0.8,0.2,1.5,0.4,2.2c-0.8-0.5-3.5-2.4-5.6-2.2
		c-3.8,0.3-9.3,6-10,6.8c-0.7-0.7-5.1-5.5-9.4-5.6c-4.1-0.1-8.2,4.6-9.1,5.8c-1.2-0.6-6.9-3.1-12.1-2.8c-5.5,0.3-7.3,5.6-7.5,6.2
		c-1.1,0.6-4,2-5.1,3c-1.4,1.2-2.6,2.7-3,3.2c-0.3,0.5-3.3,2.8-5.2,3.5c-1.9,0.7-6.8,2.2-9.2,2.5c-2.3,0.3-6.3,0.5-7.4-0.9
		c-1.1-1.3-1.3-2.7-0.7-4.7c0.6-2,2.3-6,3.7-6.9c1.4-0.9,3.4-1.8,6.5-1.8c3.1,0,3.5,0.3,3.5,0.3s3.7-4.4,4.6-5.9
		c0.9-1.4,1.7-2.9,0.8-4.5C394.4,508.5,393.4,507.2,392.9,506.6L392.9,506.6z M184,406.4c-0.2-7.8,6.6-23.1,10.4-24.1
		c3.8-0.9,11.8,9.9,15.1,10c3.3,0.2,15.9,3.3,17.8,4.5c1.6,1.1,5.4,4.5,6.5,5.5c0.4,1.8,1.9,3.7,3.4,7.5c1.5,4,2.1,11.7,0.7,17.7
		c-1.4,6-6.6,11.1-13,14.6c-6.4,3.5-9.8,1.7-11.5-1.4c-1.7-3.1,2-6.7,4.6-7.9c3.9-1.9,7.4-8.8,6.8-12.7c-0.6-3.9-3.4-2.5-5.2-1.6
		c-1.8,0.9-5.5-0.5-8.8-2.2c-3.4-1.7-7.1-9.5-11.1-4.2c-2,2.6,3.4,7.9,4.6,9.7c1.2,1.8,1.4,5.9-0.7,8.1c-2.1,2.1-7.2-0.8-8.8-1.9
		c-2.9-1.8-4.9-4.4-4.9-4.4S184.2,412.9,184,406.4L184,406.4z M166.2,383.6c-1.3,2.3-6.4,11.3-7,16.6c-0.6,5.5,2.8,17.7,3.5,20
		c-0.5,0.3-1.8,1-3.9,0.8c-2.9-0.2-7.2-5.6-7.7-8.5c-0.5-2.9-1.3-11.9-1-16.2c0.3-4.3,8.3-7.9,11.8-10.2
		C163.3,385.2,164.8,384.3,166.2,383.6L166.2,383.6z M178.9,384.4c-1.3,2.3-7.1,13.2-7.4,18.7c-0.3,5.5,2.3,17.7,2.9,20.1
		c-1.2,0-3.7,0-5.8,0c-2.1,0-4.2-1.7-5.1-2.7c0,0-3.7-13.4-3-20.8c0.3-3.9,6.1-15,7-16.7c1.9-0.8,3.7-1.4,5.2-1.4
		C174.8,381.6,177.6,383.4,178.9,384.4L178.9,384.4z M185.5,380.5c0.7,0,2.4,0,3.7,0.6c1.1,0.5,2.1,1.1,2.6,1.5
		c-4.9,4.3-9,18.5-8.8,24.3c0.3,6.1,4.9,15,6,17.1c-1.7,0.8-6,2.9-9.1,2.6c-2.9-0.2-4.2-2.1-4.7-3c-0.3-1.5-2.9-14.9-2.9-20.6
		c0.1-5.3,6-15.8,7.5-18.3c0.5-0.5,1.6-1.6,2.4-2.3C183.3,381.5,184.7,380.8,185.5,380.5L185.5,380.5z M193.7,340.4
		c5.7,6.3,15.9,16.2,20,23c4.8,8,15.1,26.8,20,34.4c0,1.5,0,2.8,0,3.6c-0.9-1-3.3-3.4-6.1-5.4c-3.7-2.6-14.4-4.5-18-4.5
		c-3.6,0-10.1-11.5-15.8-10.1c-0.5,0.1-1,0.4-1.5,0.8c-0.4-0.4-1.3-1.3-2.9-1.9c-1.4-0.5-2.6-0.5-3.4-0.5c0.6-2,2.6-9.5,3.7-15.3
		C190.6,359.6,192.6,346.9,193.7,340.4L193.7,340.4z M270.2,289.6c-0.1,1.6-0.2,5.3-0.2,9.7c0,5.7-1.3,28.9-1.4,30.8
		c-5.9,4-10.7,8.6-9.8,9.8c1.1,1.4,7.6,7.5,8.9,8.1c0.6,0.3,1.8-0.9,3.3-2.6c1.8,0.2,7.8,0.6,12.4-0.1c5.4-0.8,17.7-7.3,22.8-10.1
		c4.6-2.5,11.6-8.8,13.1-10.2c0.6,0.5,1.2,0.9,1.9,0.8c-0.6,2-3.9,13.4-5.3,16.5c-1.6,3.3-9.9,23.5-9.6,26.4c0.3,3,1.7,4.4,5.9,4.7
		c3.8,0.3,13.3,0.1,15.2,0c-0.6,5.1-1,9-0.7,9.3c0.6,0.6,11.5,2.3,12.7,0.8c0.5-0.6,0.8-4.7,0.8-10l0,0c0,0,17.4,0,24.4-1.1
		c6.2-1,16.4-3.4,19.8-4.5c0.4,0.6,0.8,1.2,0.9,1.6c1.6,5.1,4.1,22.6,5.1,28.3c-1.9-0.5-5.7-1.4-8.6-1.6c-4-0.3-13.8,1.3-13.8,1.3
		s9.3-0.1,14.8,0.5c4.5,0.5,7.4,1.5,8.4,1.9c3.2,3.8,25.6,22.1,25.6,22.1s1.1,0.5,6.9,9.1c5.8,8.5,13.5,37.8,12.5,38.8
		c-2.3,4.4-46.3,37.5-49,38.4c-2.7,0.9-6.3-10.7-9.4-17.4c-2.6-8.4-4-21.2-5.8-24.5c0,0-0.1-0.1-0.1-0.1c-0.3-2.9-0.8-8.3-0.2-11.4
		c0.8-4.4,5.6-13,5.6-13s-3.4,3.3-6.2,8.9c-1.7,3.4-1.5,9.1-1.1,13c-0.5-0.6-1.1-1.3-1.8-2c-0.3-3.2-1-11.3-1.5-12.8
		c-0.6-1.9-2.4-6.2-2.4-6.2s0.7,3.9,1.6,6.5c0.6,2.1,1.3,9,1.5,11.6c-7-7.7-20-20.8-27.7-26c-10.4-7-33-30.3-33-30.3
		s-0.3-1.1-0.5-1.8c-0.4-1.9-1.8-7.7-1.8-5.2c0,2.4,0.7,4.8,0.9,6.3c0,0.3,0.1,0.6,0.1,0.8c-3.9,0.2-16.3,0.3-27.3-4.8
		c-12.6-5.8-22.8-20.9-24.7-24.3c1-1.9,2.7-5.3,4.3-7.7c2.4-3.7,0.2-1.5-1.8,1.6c-1.1,1.7-3.1,3.8-4.6,5.4c-2,1-5.1,4.6-7.2,8.3
		c-3.1,5.2-6.1,13.8-7.4,14.7c-0.3,0.2-1-0.8-2.2-2.6c-0.1-0.2-0.2-0.5-0.4-0.8c0,0,0,0.1,0,0.1c-4.5-7.2-13.4-24.3-18.1-32
		c-6.1-10.1-26.4-26.9-23.2-28c5.4-1.8,29.1-21.4,38.6-28.1c9.5-6.7,28.6-21.5,30.7-21.5C263.1,285.2,267.6,287.9,270.2,289.6
		L270.2,289.6z M327.3,372.3c-1.6,0-12.6-0.2-15-0.3c-2.6-0.2-5.4-0.8-4.5-5.1c0.9-4.3,7.3-20.7,9-24.7c1.6-3.7,3.9-14.3,4.3-16.2
		c0.1,0,0.1,0,0.2,0c0.9,2.5,6.9,19.5,7.2,28.4C328.7,359.3,328,366.4,327.3,372.3L327.3,372.3z M305,334.3
		c-5.3,3.4-16.8,8.2-22.1,9.3c-4.1,0.8-8.4,0.2-10.2-0.1c1.6-1.7,3.3-3.5,5.1-4.8c4.5-3.4,13.4-7.8,20.5-10.1
		c6.8-2.2,18.9-4,20.1-4.2c0.1,0.2,0.3,0.3,0.4,0.5C316.7,326.3,309.5,331.4,305,334.3L305,334.3z M296.4,311.7c2,1.1,4.5,2.3,7,3.5
		c-2.1,0.3-8.6,1.3-11.5,1.2c-3.5-0.1-9.9,0.9-9.9,0.9s8.2,0.3,12.4,0c3.6-0.3,8.9-1.2,10.5-1.4c2,0.9,3.9,1.8,5.6,2.4
		c-2.3,0.3-8.3,1-13.3,1.7c-6.4,0.9-19,4.4-25.9,8.6c-0.3,0.2-0.8,0.6-1,0.7c0,0,1.1-41.3,1.1-41.5c0-4.3,1.6-7.2,3.5-2
		c1.6,4.5,10.2,13.3,13.5,15.7c-0.1,1.2,0.9,5.4,4,7.7c0.4,0.3,1.1,0.7,1.9,1.2c-1.1,0.1-4.6,0.5-6.5,0c-3-0.8-8.1-3.8-8.1-3.8
		s4.8,3.8,7.9,4.5C290.2,311.8,295.1,311.7,296.4,311.7L296.4,311.7z M229.3,172.5c3.4,3.1,6.4,5.6,8.5,7.2
		c-5.1,6.3-9.3,11.2-10.7,11.6c-0.4-0.4-0.8-1.3-1.1-3c-0.6-3.6,0.3-7.5,1.4-10.4C228.5,175,229.2,172.7,229.3,172.5L229.3,172.5z
		 M177.9,54.6c0.3,1.1,1.5,3.1,3.7,3.8c2.2,0.7,4.2,0.9,4.3,2c0.1,1.1-0.5,2.4-1.5,4.2c-1,1.8-1.8,2.7-0.5,3.1
		c1.3,0.4,3.1,0.6,2.4,2.7c-0.7,2.2-1.6,2.3-1.7,2.3c-0.1,0-1.4-0.9-1.8-0.2c-0.3,0.7,0,1.7,0.6,2.9c0.7,1.2,2.6,4.5,2.5,4.9
		c-0.1,0.5-1.8,2.7-2.5,3.7c-0.7,1-1,1.9-0.2,2.5c0.8,0.6,2.2,0.8,2.2,0.8s-2.7,1.3-3.9,2.9s-1.5,2.1-1.5,3.7s0.8,3.1,1,4.1
		c0.2,1.4,0,2.4-1.2,2.7c-1.1,0.3-3.6,0.1-4.2,0c-5.3-4.1-10.4-8.3-11.5-9.6c-1.8-2.1-3.7-4-4.8-5c-0.5-2.7-1.6-9.9,0.5-13.6
		c2.6-4.6,7.8-3.9,11.6-2.6c3.7,1.3,12.5,10.8,12.5,10.8s-4.6-7.7-10.8-11.3c-6.2-3.7-12.4-1-14.4,2.8c-1.7,3.2-0.2,13.1-0.2,13.1
		s-9.4-6.2-15.6-10.5c-6.2-4.4-16.2-12.1-15.7-15.4c0.3-1.7,2.5-1.9,3.9-2l21.3,14.8l-20.6-15.1c-1.6-1.4-11.8-10.2-9.1-14.9
		c1.8-3.1,3.9-3,5.3-2.5l27.6,17.6l-26.5-18.3c-2.2-2.6-8.9-10.9-4.7-14.2c2.9-2.3,9.6,0.7,14.2,4.1c3,2.2,24.6,13.9,39.1,22.3
		C177.7,51.9,177.6,53.6,177.9,54.6L177.9,54.6z M283.7,103.4c-4.1,8.9-18.2,39-24,47.1c-4,5.6-13.4,18.3-21.1,28.1
		c-6.7-5.3-21.1-17.6-27.2-30.2c-8.1-16.8-19-35.3-24-38.7c-2.1-1.4-6.2-4.5-10.4-7.8c0.9,0,2.5,0,3.1-0.3c0.9-0.4,2.1-1.3,1.9-2.9
		c-0.2-1.6-1.7-4.1-0.9-5.8c0.8-1.8,2-3,3.5-4c1.5-1,2-1.2,2-1.8c0-0.6-2-0.8-2.4-0.9c-0.3-0.1-0.8-0.3-0.2-1.3c0.6-1,2.7-3.2,2.9-4
		c0.2-0.8-0.5-2.3-1.1-3.3c-0.6-1-2.2-4.1-2.1-4.3c0.1-0.2,0.5,0.2,0.9,0.3c0.4,0.1,1.8-0.2,2.5-2.2c0.7-2-0.1-3.5-1-3.9
		c-1-0.4-1.8-0.6-1.8-0.6s0.7-1.1,1.3-2.2c0.6-1,1.7-3.1,1.2-4.6s-2.4-1.8-3.6-2.1c-1.2-0.3-3.6-1.2-4.1-2.9
		c-0.4-1.4-0.5-2.8-0.5-3.3c5.6,3.2,10,6,11.8,7.3c6.2,5,7.4,6.2,7.4,6.2s9.4,9.6,22.5,14.3c13.1,4.7,35.2,9.6,45.1,13.3
		C272.6,95.7,280.1,100.7,283.7,103.4L283.7,103.4z M345.1,133.1c-0.8,2.9-2.4,9.9-4.4,21.1c-2.5,14-6.1,61.7-5.7,72.6
		c0.3,10.5,6.2,49.6,6.7,52.5c-5.5,8.8-11.3,18.3-13,21.5c-3.4,6.4-5.7,13.4-5.7,13.4c-0.4,0-0.7-0.1-1,0c-0.6-0.2-6.3-2.6-10.8-4.9
		c1.1-3.1,3.8-10.8,4.7-14.5c1.1-4.5,3.8-14,3.8-14s-2.6,5.8-4.3,12.2c-1.5,5.8-4.9,14.2-5.5,15.6c-0.8-0.4-1.6-0.9-2.2-1.2
		c-4.2-2.6-4.2-3.3-4.2-3.3s-0.3-0.3-0.8-0.9c0.3-1.2,0.7-3,1-5.3c0.6-4.7,0-16.3,0-11.3c0,4.2-1.5,12.8-2,15.5
		c-1.7-1.8-5.2-5.5-5.2-5.5l0-20.7c0.6,0.6,1.2,1.2,1.7,1.5c1.2,0.9,0.5-0.4-0.3-1.2c-0.9-1-2.2-4-2.2-4c-2.1-4-7.1-13.5-9.2-20.9
		c-2.7-9.8-4.4-30.6-4.4-30.6s-0.2-2-1-3.7c1.6-0.7,5.3-2.5,7.3-4c3.8-2.8,4.2-6.7,4.2-6.7s-1.1,1.9-3.6,4.5c-2,2.1-6.8,4.5-8.5,5.3
		c0,0-0.1-0.1-0.1-0.1c0.6-0.8,1.9-2.3,2.4-3c0.8-0.9,1.6-2.6,0-0.8c-0.9,1.1-2.5,2-3.6,2.7c-0.5-0.2-1-0.4-1.6-0.3
		c-3.7,0.6-11.8-3.7-14.9-8.3c-3.1-4.6-15.1-8.6-21.8-10.1c-1-0.2-2-0.5-3-0.7c3.1-1.1,9.1-3.8,14.1-9.3
		c4.9-5.3,14.6-24.5,14.6-24.5s-5.9,11.2-14.3,21.7c-6.2,7.8-13.8,10.4-17.4,11.3c-4.5-1.3-6.6-2.6-6.6-2.6
		c3.4-0.9,26.1-31.2,32.8-40.6c6.7-9.5,24.5-48.2,24.5-48.2c3.7,1.7,10.5,11,13,14.5c-1.1,0.2-2.4,0.4-3.3,0.6
		c-1.5,0.4-1.4,1.1,0.5,0.8c1.2-0.2,2.9-0.1,3.8-0.1c1,0.2,12.7,2.1,17.4,3.6c4.6,1.4,13.1,7,14.3,7.7c0.3,0.3,0.8,0.7,1.3,1.3
		c0.9,1.1,1.5,1.5,2.1,2.2c0.6,0.7-0.5-1.5-1.4-3c-0.1-0.2-0.2-0.3-0.3-0.4c2.5,0,7.5,0.4,11.7,2.4
		C344.8,133,344.9,133.1,345.1,133.1L345.1,133.1z M352,144.7c-0.7,3.9-4,35-5.6,56.5c-1.2,12.8-0.4,26,0.4,31.4
		c1.6,13.9,4.4,26.6,5.1,30.1c-0.9,1.5-5,7.9-9.5,15.1c-0.5-4.3-5.6-44.4-6.2-50.2c-0.6-6.2,0.3-20,1.2-29.5
		c0.9-9.5,3.3-35.3,4.3-42.7c1.1-7.3,4.2-21.1,4.3-21.6C350.9,136.4,352.9,140,352,144.7L352,144.7z M386.4,124.6
		c0.4,1.5,1.3,4.9,2.2,5.8c1.2,1.2,5.4,2.8,6.4,3.3c0.9,0.5,2.1,3,2.2,4.8c0.2,5.1-1.2,12.1-7.9,18c-7.5,6.5-17.6,8-23,4.4
		c-5.4-3.6-9.6-8.7-8.5-15.4c0.9-5.8,5.1-12.3,6.2-13.9c0.1-0.1,0.6-0.3,1.1-0.6c0.1,0,0.1-0.1,0.2-0.1c0,0.1,1.2,2.3,4.2,4.1
		c3,1.9,6.1,3,8.8,2.7c2.6-0.3,2.7-1.4,1.6-0.9c-1.1,0.5-3.7,0.4-5.4-0.4c-1.7-0.8-2.3-0.9-4.2-2.4c-1.8-1.3-3.4-3.8-3.7-4.3
		l1.4-1.6c0.2-0.2,0.4-0.4,0.6-0.6c1.2-1.1,2.6-1.6,4.2-2c1.6-0.4,4.1-0.5,5.1-0.5c1-0.1,2.1,0.1,3.1-0.5c1-0.6,1.7-1.6,2.7-2
		c1.2-0.6,1.8,0.4,2.2,0.9C386,123.5,386.2,124.1,386.4,124.6L386.4,124.6z M430.2,181c-5.1,4.1-32.2,26.3-42.2,37.9
		c-7.9,9.1-27.3,31.3-34.8,41.9c-0.8-4.4-4.6-26.1-5.1-31.7c-1.1-10.4-0.2-27.8,0.3-32.3c0.5-4.5,4.8-47.1,4.8-47.1s0.2-2,0.3-4.3
		c0.1-0.9,0.2-1.6,0.3-2c0.2-1.4,0.2-2.7-0.2-3.9c0-0.1,0-0.2-0.1-0.3c0.3-0.4,0.8-1,1.2-1.5c0.8-1,2.6-2.8,3.9-4.1
		c1.3-1.3,2.6-1.6,3.7-2c0.3-0.1,0.7-0.2,1.1-0.3c-0.5,0.9-3.6,5.9-4.7,8.1c-1.2,2.4-2.9,9.2-0.6,13.8c2.3,4.6,7.3,8.7,10.8,9.8
		c3.5,1.1,15,0,21.2-6.3s8.2-11.9,8.1-16.3c-0.2-4.4-1.9-6.7-2.7-7.2c-0.9-0.5-5.4-1.9-6.3-3c-0.9-1.1-0.9-1.1-0.9-1.1l-1.1-3.2l0,0
		c0.6,0,1.6,0.1,2.7,0.1c1.6-0.1,4.2-2.3,5-3.2c0.8-0.8,1.5-3.5,1.8-4.5c0.3-1,0.9-1.3,1.1-1.5c0.2-0.2,0.9-1.8,1.9-3.8
		c1-2,3-7.9,3.4-9.3c0.4-1.4,0.2-3-0.1-4.8c-0.3-1.8-1.4-5.4-1.4-5.4s1,0.1,2.8,0.9c1.8,0.8,6.2,3.3,8.1,4.7c1.9,1.4,3,2.6,4.7,5.7
		c1.7,3.2,2.9,8,3.4,12.6c0.5,4.6,0.3,7.8-0.4,11.7c-0.6,3.5-2.3,8.4-2.6,9.5c-0.3,0.2-0.8,0.7-1.4,0.9c-0.8,0.2-1.8,0.3-2.4,0
		c-0.6-0.3-0.1,0.3,0.7,0.9c0.8,0.6,2,1.4,1.9,3.4c-0.2,2-1.9,6.4-4.1,5.7c-2.2-0.7-2.4-2.2-2.7-2.8c-0.3-0.6-0.7-0.4-0.7,0.1
		s-1,1.2-0.2,2.8c0.8,1.6,3.8,2.1,5.2,1.6c1.4-0.5,4.2-4,3.7-7.5c-0.5-3.4-0.3-4.1,0-4.3c0.1-0.1,0.2-0.2,0.3-0.2
		c0.6,0.7,2,2.2,2.9,3.4c1.2,1.5,2.3,2.9,4.8,7.2c2.5,4.3,3.7,10.2,4,13c0.3,2.8-0.2,9-0.3,11.5c-0.2,2.5-0.2,6.2,0.1,6.4
		C429.3,180.8,429.8,180.9,430.2,181L430.2,181z M439.5,182.9c-3.2,3.4-35.9,38.4-42.1,45.1c-6.5,7-6.5,7-6.5,7
		s-22.4,25.9-27.7,32.9s-23.6,35-25.6,39.6c-1.8,4.2-4.3,9.5-4.8,10.5c-1.2-0.8-2.7-1.5-3.9-2.1c-1.4-0.8-3.8-1.4-5.1-1.7
		c0.8-1.9,3-7.3,6.4-13.4c3.7-6.7,14.6-25.1,22.7-36.6c0.1,0.3,17.9-22.6,27.3-33.9c16.8-20.1,51.6-48.9,51.6-48.9
		S435.7,182.3,439.5,182.9L439.5,182.9z M495.9,275.5c3.1,8.2,12.5,23.1,12.5,23.1s-3.7-1.6-9.2-6.5c-5.5-4.9-10-6.6-15.2-6.9
		c-0.5,0-1.2,0-1.8,0.1c-3.4-0.8-8.5-2.2-11.9-3.6c-5.6-2.3-12.5-10.7-12.5-10.7s3.7,7.8,11.2,11.5c3.7,1.9,7.3,3,9.9,3.7
		c-5.4,1.8-12.9,5.5-21.1,5.5c-11.3,0-23.4-6.5-23.4-6.5s-7.7-3.9-10.9-7.9c-4.7-5.9-7.1-15.1-7.1-15.1s0.2,8.7,4.9,15.3
		c3.2,4.6,8.6,7.6,11.2,9.3c-2.1-0.2-6.7-0.3-8.5-0.8c-2.5-0.6-6.8-1.7-6.8-1.7s3.5,2,8.1,2.9c3,0.6,5.5,0.9,6.7,1
		c-4.3,5.4-13.1,15.6-20.4,21.5c-9,7.4-23.4,9.2-28.9,10.8c0.7-1,1-1.5,1.2-1.9c0.2-0.7-1.9,1.6-3.2,3.1c-0.9,0.5-2.4,1.8-4.2,3.4
		c0,0-0.4,0-0.4,0c-1,0-7.6-0.2-14.5-0.6c0.2-1.1,0.6-3.3,1.5-4.9c1.2-2.3,6.8-10.4,6.8-10.4s-3.7,4.6-6,7.6
		c-1.7,2.2-3.5,5.9-4.4,7.6c-4.5-0.3-8.8-0.7-11.2-1.1c-0.4-0.1-0.8-0.2-1.2-0.2c0.7-1.7,2.1-5.3,3.7-9c2-4.8,17.8-29.6,7.8-15.3
		c-3.4,4.8-11.1,19.7-13.3,23.9c-4.9-1.2-10-3.1-11.3-3.6c0,0-0.1-0.1-0.1-0.1l0.1,0.1c0,0,5.9-14.1,13.5-25.3
		c7.6-11.2,7.8-11.7,7.8-11.7s16.2-23.1,28.9-37.1c12.7-14,12.7-14,12.7-14l44.3-47.8c4.8,0.7,10.2,1.4,12.1,1.2
		c3.7-0.3,27.7,1.4,28.9,3.5c1.2,2.1-0.1,28.4,1.7,43.7C485.7,246.8,492.8,267.3,495.9,275.5L495.9,275.5z M533.5,128.2
		c-0.2,0.2-0.3,0.5-0.4,0.8c-0.2,0.5-0.9,1.9-0.8,3.2c0.1,1.3,1.7,1.4,1.8,1.7c0.1,0.3-1.9,1.6-2.7,2.5c-0.9,0.9-0.1,2.4,1.2,2.7
		c1.3,0.3,2.3,1.1,2.3,1.8c0,0.7-1.2,1.8-1.9,2.1c-0.6,0.3-2.6-0.6-3.3,0.7c-0.7,1.2,3.2,5,3.6,5.6c0.4,0.5,0.4,0.7-0.2,0.9
		c-0.6,0.3-2.4,0.5-2.8,1.4c-0.3,1,1.9,2.4,2.6,2.8c0.6,0.4,0.2,0.3-0.7,0.5s-2.5,0.7-2.7,1.8c-0.3,1.2,2.3,3.1,2.7,3.3
		c0.3,0.2,0,0.4-0.9,0.7c-0.9,0.3-3.1,0.4-3.4,1.5c-0.3,1.1,2,2.8,3.9,4.2c2,1.3,1.3,1.2,0.8,1.2c-0.5,0-2.1-0.3-2.4,0.5
		c-0.1,0.4,0,0.8,0.2,1.1c-2.2-0.5-5-0.7-6.1,0c-5.3,3.4-10.5,5.2-13.3,2.9c-3.7-3-2.9-5.1-2.6-5.7l7.3-2.9l-7.9,2.4
		c-1.8-0.8-6.4-3.1-7.4-5.7c-1-2.6-0.3-4.8,0-5.5l8-1.5l-8.4,0.9c-1.2-0.6-3.8-2.1-3.6-4.6c0.1-3.4,2.6-5.4,3.8-6.2l7.8-1.5
		l-7.8,0.9c-1.1-0.3-3.1-1-4.8-3.2c-1.3-1.6-1.7-6.4,1.2-9.9c4.2-4.7,20.8-8.9,25.2-9C525.3,120.3,533,127.7,533.5,128.2
		L533.5,128.2z M570.9,190.5c0.6,6.2,1.8,18.9,4.2,25.7c2.5,6.8,11.7,26.4,8.9,38.3c-2.8,11.4-13,31.7-14.6,33.5
		c-1.5,1.8-2.7,4.1-3.9,0.4c-1.3-1.6-3.2,4-4.4,7.3c-1.6,4.2-5.1,14.1-6.4,8.9c-1.5-5.5-7.8-15.3-9.2-14.7c-1.1,0.5,1.9,6.2,2.3,7.9
		c0.3,1.6-0.3,0.7-1.7-0.5c-4.3-3.8-10-9.4-11.3-10.5c-2.7-2.2-0.4,5.9-1.3,4.6c-2.2-2.8-8.1-6.3-11.3-7.4
		c-3.1-1.1-7.5-1.9-11.5-2.8c-3.7-0.9-7.7,0.1-9.8,0.9c-1.3-2.7-2.4-5.1-3.2-7.1c-3.1-8.4-10.3-29.9-12.1-45.4
		c-1.6-13.1-0.9-33-1.4-40.3c3.6-0.3,15-1,19.5,0.7c5.4,2,14,9.5,14,9.5s-2.5-9.9,2.2-15c3.2-3.5,12.1-7,12-11.6c0-0.3,0-2.7,0-2.7
		s-0.1-0.7-0.1-0.7c0,0-0.3-0.4-0.4-0.7c-0.3-0.4,0-0.5,0.8-0.5c0.8,0,1.8-0.1,2-0.5s-0.5-1.3-1.5-2c-1-0.7-3.6-2.6-3.9-3.3
		c-0.3-0.7,0.7-0.7,2-0.8c1.2-0.2,2.4-1,2.5-1.4c0.1-0.5-0.4-0.8-1.1-1.3c-0.7-0.5-1.9-1.7-1.7-2.3c0.1-0.6,3.3-1.2,3.8-1.4
		c0.5-0.3,0.2-0.9-0.3-1.2c-0.4-0.3-2.4-1.6-2.8-2c-0.3-0.4,1.2-0.6,1.9-0.8c0.7-0.2,1.4-0.7,1.4-1.1c0.1-0.5-0.7-1.5-1.7-2.5
		c-1-1-2.5-3.1-2.4-3.4c0.1-0.3,2.2-0.1,2.9-0.3c0.6-0.2,2.1-1,2.4-2.6c0.4-1.5-1.4-2.4-2.3-2.7c-0.9-0.3-1.4-0.8-1.5-1.3
		c0-0.5,2.5-2.5,2.9-2.9c0.4-0.4,0.3-1.1-0.8-1.4c-1.1-0.3-0.9-1.5-0.7-2.3c0.1-0.6,0.6-1.5,0.9-2.1c4.8,2.8,33.6,24.2,36.8,28.2
		C574.4,161.1,570.2,184.4,570.9,190.5L570.9,190.5z M399.7,256.7c5.9-6.1,25.7-14.1,25.7-14.1s-16.6,3.7-25.7,11.8
		c-9.2,8.1-30.8,36.7-30.8,36.7S393.8,262.9,399.7,256.7L399.7,256.7z M397.8,134.6c1.7,1.5,5.1,3.7,8.5-0.2c3.4-3.9-3.1-8.9-5-10.6
		c-2-1.6-3.2-3.6-3.2-3.6c0,0,0,0.1-0.1,0.1c-0.2,0.1-2.5,1.9-4.3,4.4c-1.9,2.6-1.7,5.8-1.7,5.8s0,0,0,0c0,0.1,0,0.1,0.1,0.2
		C392.6,131.4,396.1,133.1,397.8,134.6L397.8,134.6z M398,134.2c-1.5-1.3-4.5-2.8-5-3.3c-0.1-0.1-0.1-0.3,0-0.4
		c1.5-0.2,4.1-0.7,5.5-2.5c1.2-1.5,0.9-3.7,0.4-5.4c0.5,0.6,1.2,1.5,2.1,2.2c1.7,1.4,7.3,5.8,4.4,9.2
		C402.5,137.4,399.5,135.5,398,134.2L398,134.2z M327.1,221.2c-1.3-19.9,0-44.8,1.3-54.7c0,0-4,17.3-4,41.6
		c0,24.3,6.5,49.1,6.5,49.1S328.4,241,327.1,221.2L327.1,221.2z"/>
</g>
</svg>
